<svg width="1113" height="863" viewBox="0 0 1113 863" fill="none" xmlns="http://www.w3.org/2000/svg">
<path fill-rule="evenodd" clip-rule="evenodd" d="M0 0H981.69V739.745V863L0 0Z" transform="translate(237.31)" fill="url(#paint0_linear)"/>
<path opacity="0.297668" fill-rule="evenodd" clip-rule="evenodd" d="M2 4C3.10457 4 4 3.10457 4 2C4 0.89543 3.10457 0 2 0C0.89543 0 0 0.89543 0 2C0 3.10457 0.89543 4 2 4Z" transform="translate(697 384)" fill="white"/>
<path opacity="0.6" fill-rule="evenodd" clip-rule="evenodd" d="M3 6C4.65685 6 6 4.65685 6 3C6 1.34315 4.65685 0 3 0C1.34315 0 0 1.34315 0 3C0 4.65685 1.34315 6 3 6Z" transform="translate(850 162)" fill="white"/>
<path opacity="0.6" fill-rule="evenodd" clip-rule="evenodd" d="M3 6C4.65685 6 6 4.65685 6 3C6 1.34315 4.65685 0 3 0C1.34315 0 0 1.34315 0 3C0 4.65685 1.34315 6 3 6Z" transform="translate(850 352)" fill="white"/>
<path opacity="0.6" fill-rule="evenodd" clip-rule="evenodd" d="M3 6C4.65685 6 6 4.65685 6 3C6 1.34315 4.65685 0 3 0C1.34315 0 0 1.34315 0 3C0 4.65685 1.34315 6 3 6Z" transform="translate(410 362)" fill="white"/>
<path opacity="0.6" fill-rule="evenodd" clip-rule="evenodd" d="M3 6C4.65685 6 6 4.65685 6 3C6 1.34315 4.65685 0 3 0C1.34315 0 0 1.34315 0 3C0 4.65685 1.34315 6 3 6Z" transform="translate(360 672)" fill="white"/>
<path fill-rule="evenodd" clip-rule="evenodd" d="M3 6C4.65685 6 6 4.65685 6 3C6 1.34315 4.65685 0 3 0C1.34315 0 0 1.34315 0 3C0 4.65685 1.34315 6 3 6Z" transform="translate(994 208)" fill="white"/>
<path fill-rule="evenodd" clip-rule="evenodd" d="M3 6C4.65685 6 6 4.65685 6 3C6 1.34315 4.65685 0 3 0C1.34315 0 0 1.34315 0 3C0 4.65685 1.34315 6 3 6Z" transform="translate(143 480)" fill="white"/>
<path opacity="0.297668" fill-rule="evenodd" clip-rule="evenodd" d="M2 4C3.10457 4 4 3.10457 4 2C4 0.89543 3.10457 0 2 0C0.89543 0 0 0.89543 0 2C0 3.10457 0.89543 4 2 4Z" transform="translate(807 264)" fill="white"/>
<path opacity="0.297668" fill-rule="evenodd" clip-rule="evenodd" d="M2 4C3.10457 4 4 3.10457 4 2C4 0.89543 3.10457 0 2 0C0.89543 0 0 0.89543 0 2C0 3.10457 0.89543 4 2 4Z" transform="translate(617 704)" fill="white"/>
<path opacity="0.6" fill-rule="evenodd" clip-rule="evenodd" d="M3 6C4.65685 6 6 4.65685 6 3C6 1.34315 4.65685 0 3 0C1.34315 0 0 1.34315 0 3C0 4.65685 1.34315 6 3 6Z" transform="translate(770 482)" fill="white"/>
<path opacity="0.297668" fill-rule="evenodd" clip-rule="evenodd" d="M2 4C3.10457 4 4 3.10457 4 2C4 0.89543 3.10457 0 2 0C0.89543 0 0 0.89543 0 2C0 3.10457 0.89543 4 2 4Z" transform="translate(727 584)" fill="white"/>
<path opacity="0.297668" fill-rule="evenodd" clip-rule="evenodd" d="M2 4C3.10457 4 4 3.10457 4 2C4 0.89543 3.10457 0 2 0C0.89543 0 0 0.89543 0 2C0 3.10457 0.89543 4 2 4Z" transform="translate(347 194)" fill="white"/>
<path opacity="0.6" fill-rule="evenodd" clip-rule="evenodd" d="M3 6C4.65685 6 6 4.65685 6 3C6 1.34315 4.65685 0 3 0C1.34315 0 0 1.34315 0 3C0 4.65685 1.34315 6 3 6Z" transform="translate(0 192)" fill="white"/>
<path opacity="0.297668" fill-rule="evenodd" clip-rule="evenodd" d="M2 4C3.10457 4 4 3.10457 4 2C4 0.89543 3.10457 0 2 0C0.89543 0 0 0.89543 0 2C0 3.10457 0.89543 4 2 4Z" transform="translate(377 394)" fill="white"/>
<path opacity="0.297668" fill-rule="evenodd" clip-rule="evenodd" d="M2 4C3.10457 4 4 3.10457 4 2C4 0.89543 3.10457 0 2 0C0.89543 0 0 0.89543 0 2C0 3.10457 0.89543 4 2 4Z" transform="translate(77 694)" fill="white"/>
<path opacity="0.6" fill-rule="evenodd" clip-rule="evenodd" d="M3 6C4.65685 6 6 4.65685 6 3C6 1.34315 4.65685 0 3 0C1.34315 0 0 1.34315 0 3C0 4.65685 1.34315 6 3 6Z" transform="translate(230 472)" fill="white"/>
<path opacity="0.297668" fill-rule="evenodd" clip-rule="evenodd" d="M2 4C3.10457 4 4 3.10457 4 2C4 0.89543 3.10457 0 2 0C0.89543 0 0 0.89543 0 2C0 3.10457 0.89543 4 2 4Z" transform="translate(187 574)" fill="white"/>
<path opacity="0.6" fill-rule="evenodd" clip-rule="evenodd" d="M3 6C4.65685 6 6 4.65685 6 3C6 1.34315 4.65685 0 3 0C1.34315 0 0 1.34315 0 3C0 4.65685 1.34315 6 3 6Z" transform="translate(950 22)" fill="white"/>
<path fill-rule="evenodd" clip-rule="evenodd" d="M3 6C4.65685 6 6 4.65685 6 3C6 1.34315 4.65685 0 3 0C1.34315 0 0 1.34315 0 3C0 4.65685 1.34315 6 3 6Z" transform="translate(1104 88)" fill="white"/>
<path fill-rule="evenodd" clip-rule="evenodd" d="M3 6C4.65685 6 6 4.65685 6 3C6 1.34315 4.65685 0 3 0C1.34315 0 0 1.34315 0 3C0 4.65685 1.34315 6 3 6Z" transform="translate(478 74)" fill="white"/>
<path fill-rule="evenodd" clip-rule="evenodd" d="M3 6C4.65685 6 6 4.65685 6 3C6 1.34315 4.65685 0 3 0C1.34315 0 0 1.34315 0 3C0 4.65685 1.34315 6 3 6Z" transform="translate(1009 623)" fill="white"/>
<path fill-rule="evenodd" clip-rule="evenodd" d="M3 6C4.65685 6 6 4.65685 6 3C6 1.34315 4.65685 0 3 0C1.34315 0 0 1.34315 0 3C0 4.65685 1.34315 6 3 6Z" transform="translate(303 40)" fill="white"/>
<path d="M93.3592 186.353C144.92 186.353 186.718 144.636 186.718 93.1765C186.718 41.7165 144.92 0 93.3592 0C41.7983 0 0 41.7165 0 93.1765C0 144.636 41.7983 186.353 93.3592 186.353Z" transform="translate(670.225 327.445)" fill="url(#paint1_linear)"/>
<path d="M24.2042 51.3638C24.2042 32.4214 19.0951 14.7827 10.298 0C10.298 0 5.3645 7.86785 6.29147 12.9251C7.21777 17.9831 12.661 18.3693 12.1019 22.0793C11.5428 25.7894 7.52754 21.0176 2.58494 30.795C-2.35732 40.5732 0.114822 54.0645 7.21777 55.0742C14.321 56.0832 24.2042 51.3638 24.2042 51.3638Z" transform="translate(832.739 372.308)" fill="#3775F4"/>
<path d="M2.32642 0C14.0662 3.16976 24.955 8.39627 34.5775 15.2653C34.5775 15.2653 22.8822 13.3465 18.4517 17.2867C14.0217 21.2282 7.56061 30.5458 2.32603 17.2867C-2.90777 4.02844 2.32642 0 2.32642 0Z" transform="translate(784.331 330.896)" fill="#3775F4"/>
<path d="M0 31.2773C17.1511 12.1044 42.3151 0 70.3622 0C70.3622 0 64.0133 3.7711 76.0451 10.1643C88.0774 16.5583 82.5622 19.5085 80.0556 21.4758C77.5494 23.4431 73.2019 17.5416 70.3622 13.6077C67.5222 9.67268 55.3263 3.60793 45.9673 6.88739C36.6088 10.1668 28.5893 12.5892 29.925 15.6402C31.2604 18.6905 47.3031 12.7911 53.319 13.1174C59.3349 13.4445 57.3295 17.0503 51.6488 21.313C45.9673 25.5758 45.2976 30.8211 51.3139 34.0995C57.3295 37.3793 64.6808 37.7074 66.3539 35.7405C68.026 33.7732 63.3458 20.9863 74.7098 26.5594C86.0738 32.1325 95.4323 35.4138 86.0738 43.6094C76.7148 51.8042 66.0205 60.9878 65.6857 66.2317C65.3509 71.4763 69.0291 75.7419 67.0236 76.0682C65.0182 76.3945 63.1776 73.9377 61.8415 72.1332C60.5062 70.3298 54.3217 69.675 51.3139 70.8214C48.3058 71.9679 42.6233 76.3945 45.7992 80.6573C48.9755 84.9208 53.3168 82.9509 57.6629 84.9186C62.0082 86.8859 66.0604 94.3733 65.2284 96.0655C64.3964 97.7571 60.6922 95.6151 57.6629 89.8369C54.6328 84.058 48.9499 87.8696 44.9515 86.8859C40.9527 85.9026 37.9445 85.2471 33.9337 78.3615C29.9228 71.4766 21.6192 69.5498 18.2262 65.575C8.50644 54.1893 9.20173 45.5752 7.19667 41.641C5.19124 37.7056 0 31.2773 0 31.2773Z" transform="translate(694.43 327.445)" fill="#3775F4"/>
<path d="M11.5807 0.229293C11.5807 0.229293 21.6142 1.22962 26.6307 5.57325C31.6472 9.91614 32.3174 11.5872 40.009 13.2569C47.7006 14.9258 51.0458 19.2672 46.0289 27.6191C41.0123 35.9699 31.9808 49.3318 27.6341 53.3404C23.2877 57.3493 17.9361 60.6894 15.9293 67.3698C13.9229 74.0494 13.2528 78.0555 17.601 80.7298C17.601 80.7298 15.2614 86.4092 9.90979 79.0602C4.55782 71.7105 8.90604 63.0269 9.90979 58.0161C10.9128 53.0061 13.5879 37.976 11.9158 34.2999C10.2449 30.6248 2.55107 28.2859 0.544309 20.6044C-1.46245 12.9226 2.04956 -2.02673 11.5807 0.229293Z" transform="translate(763.584 420.622)" fill="#3775F4"/>
<path d="M0 0C0 25.4289 59.9967 46.0431 134.006 46.0431C208.016 46.0431 268.013 25.4289 268.013 0" transform="translate(879.244 344.125) scale(-1 1) rotate(29)" stroke="url(#paint2_linear)" stroke-width="3.456"/>
<path d="M0 0C0 25.4289 59.9967 46.0431 134.006 46.0431C208.016 46.0431 268.013 25.4289 268.013 0" transform="translate(715.21 300.869) scale(1 -1) rotate(-69)" stroke="url(#paint3_linear)" stroke-width="3.456"/>
<path d="M0 0C0 25.4289 57.1783 46.0431 127.711 46.0431C198.244 46.0431 255.423 25.4289 255.423 0" transform="translate(812.38 298.862) scale(-1 1) rotate(70)" stroke="url(#paint4_linear)" stroke-width="3.456"/>
<path fill-rule="evenodd" clip-rule="evenodd" d="M0 0C0 9.16138 26.5816 28.8653 37.9094 29.0986ZM216.393 31.1913C235.681 31.1913 266.066 11.6532 266.066 1.86542Z" transform="translate(641.234 464.694) scale(1 -1) rotate(28)" stroke="url(#paint5_linear)" stroke-width="3.456" stroke-dasharray="3.46 3.46 3.46 3.46"/>
<path fill-rule="evenodd" clip-rule="evenodd" d="M0 0C0 9.16138 25.6534 28.8653 36.5856 29.0986ZM206.935 32.9269C225.549 32.9269 254.873 13.3888 254.873 3.60101Z" transform="translate(716.251 536.746) scale(1 -1) rotate(69)" stroke="url(#paint6_linear)" stroke-width="3.456" stroke-dasharray="3.46 3.46 3.46 3.46"/>
<path fill-rule="evenodd" clip-rule="evenodd" d="M0 23.1739C3.87177 31.4769 35.4489 38.4932 45.4554 34.0844ZM215.644 29.3259C234.258 29.3259 263.582 9.78782 263.582 0Z" transform="translate(867.667 504.741) scale(-1 1) rotate(-32)" stroke="url(#paint7_linear)" stroke-width="3.456" stroke-dasharray="3.46 3.46 3.46 3.46"/>
<path fill-rule="evenodd" clip-rule="evenodd" d="M0 0C0 9.16138 26.5816 28.8653 37.9094 29.0986ZM216.393 31.1913C235.681 31.1913 266.066 11.6533 266.066 1.86543Z" transform="translate(801.731 551.857) scale(-1 1) rotate(-70)" stroke="url(#paint8_linear)" stroke-width="3.456" stroke-dasharray="3.46 3.46 3.46 3.46"/>
<g filter="url(#filter0_d)">
<path fill-rule="evenodd" clip-rule="evenodd" d="M87 42C135.049 42 174 32.598 174 21C174 9.40202 135.049 0 87 0C38.9512 0 0 9.40202 0 21C0 32.598 38.9512 42 87 42Z" transform="translate(680 560.687)" fill="black" fill-opacity="0.01"/>
</g>
<path opacity="0.517267" fill-rule="evenodd" clip-rule="evenodd" d="M0 0L41.2509 21.5053V60.3928L0 37.0725V0Z" transform="translate(974.507 418.059)" fill="url(#paint9_linear)"/>
<path opacity="0.517267" fill-rule="evenodd" clip-rule="evenodd" d="M0 0L41.2509 21.5053V60.3928L0 37.0725V0Z" transform="translate(663.31 211)" fill="url(#paint10_linear)"/>
<path opacity="0.517267" fill-rule="evenodd" clip-rule="evenodd" d="M0 0L41.2509 21.5053V60.3928L0 37.0725V0Z" transform="translate(525 487.078)" fill="url(#paint11_linear)"/>
<path d="M0 0C0 25.4289 59.9967 46.0431 134.006 46.0431C208.016 46.0431 268.013 25.4289 268.013 0" transform="translate(647.137 359.489) scale(1 -1) rotate(-37)" stroke="url(#paint12_linear)" stroke-width="3.456"/>
<path fill-rule="evenodd" clip-rule="evenodd" d="M0 14.1591L5.09937 1.25326L6.49879 0V17.7774L0 14.1591Z" transform="translate(988.331 434.743) rotate(2)" fill="#294151"/>
<path fill-rule="evenodd" clip-rule="evenodd" d="M7.82587 14.1639L6.54081 15.4592L1.30405 17.7822L0 1.29492L1.30405 0L7.82587 14.1639Z" transform="translate(993.92 434.934) rotate(2)" fill="#294151"/>
<path fill-rule="evenodd" clip-rule="evenodd" d="M1.32186 0L7.82065 3.44167V8.97596L6.49148 10.2454L0 1.28518L1.32186 0Z" transform="translate(986.498 449.365) rotate(2)" fill="#294151"/>
<path fill-rule="evenodd" clip-rule="evenodd" d="M7.85931 0L1.33749 8.97596L0 10.2443L0.0774049 4.66379L0.922396 3.57735L7.85931 0Z" transform="translate(993.374 449.605) rotate(2)" fill="#294151"/>
<path fill-rule="evenodd" clip-rule="evenodd" d="M0 13.9982L6.46212 0V17.5753L0 13.9982Z" transform="translate(986.917 436.165) rotate(2)" fill="#497391"/>
<path fill-rule="evenodd" clip-rule="evenodd" d="M6.48502 14.0029L0 17.58V0L6.48502 14.0029Z" transform="translate(993.77 436.4) rotate(2)" fill="#497391"/>
<path fill-rule="evenodd" clip-rule="evenodd" d="M0 0L6.46212 3.40254V8.87391L0 0Z" transform="translate(986.41 450.667) rotate(2)" fill="#497391"/>
<path fill-rule="evenodd" clip-rule="evenodd" d="M6.48502 0L0 8.87391V3.40254L6.48502 0Z" transform="translate(993.263 450.906) rotate(2)" fill="#497391"/>
<path fill-rule="evenodd" clip-rule="evenodd" d="M0 14.1591L5.09937 1.25326L6.49879 0V17.7774L0 14.1591Z" transform="translate(676.366 227.743) rotate(2)" fill="#294151"/>
<path fill-rule="evenodd" clip-rule="evenodd" d="M7.82587 14.1639L6.54081 15.4592L1.30405 17.7822L0 1.29492L1.30405 0L7.82587 14.1639Z" transform="translate(681.955 227.934) rotate(2)" fill="#294151"/>
<path fill-rule="evenodd" clip-rule="evenodd" d="M1.32186 0L7.82065 3.44167V8.97596L6.49148 10.2454L0 1.28518L1.32186 0Z" transform="translate(674.533 242.365) rotate(2)" fill="#294151"/>
<path fill-rule="evenodd" clip-rule="evenodd" d="M7.85931 0L1.33749 8.97596L0 10.2443L0.0774049 4.66379L0.922396 3.57735L7.85931 0Z" transform="translate(681.409 242.605) rotate(2)" fill="#294151"/>
<path fill-rule="evenodd" clip-rule="evenodd" d="M0 13.9982L6.46212 0V17.5753L0 13.9982Z" transform="translate(674.952 229.165) rotate(2)" fill="#497391"/>
<path fill-rule="evenodd" clip-rule="evenodd" d="M6.48502 14.0029L0 17.58V0L6.48502 14.0029Z" transform="translate(681.804 229.4) rotate(2)" fill="#497391"/>
<path fill-rule="evenodd" clip-rule="evenodd" d="M0 0L6.46212 3.40254V8.87391L0 0Z" transform="translate(674.445 243.667) rotate(2)" fill="#497391"/>
<path fill-rule="evenodd" clip-rule="evenodd" d="M6.48502 0L0 8.87391V3.40254L6.48502 0Z" transform="translate(681.298 243.906) rotate(2)" fill="#497391"/>
<path fill-rule="evenodd" clip-rule="evenodd" d="M0 14.1591L5.09937 1.25326L6.49879 0V17.7774L0 14.1591Z" transform="translate(540.366 504.743) rotate(2)" fill="#294151"/>
<path fill-rule="evenodd" clip-rule="evenodd" d="M7.82587 14.1639L6.54081 15.4592L1.30405 17.7822L0 1.29492L1.30405 0L7.82587 14.1639Z" transform="translate(545.955 504.934) rotate(2)" fill="#294151"/>
<path fill-rule="evenodd" clip-rule="evenodd" d="M1.32186 0L7.82065 3.44167V8.97596L6.49148 10.2454L0 1.28518L1.32186 0Z" transform="translate(538.533 519.365) rotate(2)" fill="#294151"/>
<path fill-rule="evenodd" clip-rule="evenodd" d="M7.85931 0L1.33749 8.97596L0 10.2443L0.0774049 4.66379L0.922396 3.57735L7.85931 0Z" transform="translate(545.409 519.605) rotate(2)" fill="#294151"/>
<path fill-rule="evenodd" clip-rule="evenodd" d="M0 13.9982L6.46212 0V17.5753L0 13.9982Z" transform="translate(538.952 506.165) rotate(2)" fill="#497391"/>
<path fill-rule="evenodd" clip-rule="evenodd" d="M6.48502 14.0029L0 17.58V0L6.48502 14.0029Z" transform="translate(545.804 506.4) rotate(2)" fill="#497391"/>
<path fill-rule="evenodd" clip-rule="evenodd" d="M0 0L6.46212 3.40254V8.87391L0 0Z" transform="translate(538.445 520.667) rotate(2)" fill="#497391"/>
<path fill-rule="evenodd" clip-rule="evenodd" d="M6.48502 0L0 8.87391V3.40254L6.48502 0Z" transform="translate(545.298 520.906) rotate(2)" fill="#497391"/>
<defs>
<filter id="filter0_d" x="646" y="526.687" width="242" height="110" filterUnits="userSpaceOnUse" color-interpolation-filters="sRGB">
<feFlood flood-opacity="0" result="BackgroundImageFix"/>
<feColorMatrix in="SourceAlpha" type="matrix" values="0 0 0 0 0 0 0 0 0 0 0 0 0 0 0 0 0 0 255 0"/>
<feOffset/>
<feGaussianBlur stdDeviation="17"/>
<feColorMatrix type="matrix" values="0 0 0 0 0.2 0 0 0 0 0.278431 0 0 0 0 0.466667 0 0 0 0.5 0"/>
<feBlend mode="normal" in2="BackgroundImageFix" result="effect1_dropShadow"/>
<feBlend mode="normal" in="SourceGraphic" in2="effect1_dropShadow" result="shape"/>
</filter>
<linearGradient id="paint0_linear" x2="1" gradientUnits="userSpaceOnUse" gradientTransform="translate(981.69) scale(666.551 585.962) rotate(104.515)">
<stop stop-color="#4274E2"/>
<stop offset="1" stop-color="#100842"/>
</linearGradient>
<linearGradient id="paint1_linear" x2="1" gradientUnits="userSpaceOnUse" gradientTransform="translate(93.3592) scale(186.718 186.353) rotate(90)">
<stop stop-color="#334777"/>
<stop offset="1" stop-color="#172242"/>
</linearGradient>
<linearGradient id="paint2_linear" x2="1" gradientUnits="userSpaceOnUse" gradientTransform="translate(268.013) scale(268.013 46.0431) rotate(180)">
<stop stop-color="#13F1FC"/>
<stop offset="1" stop-color="#0470DC"/>
</linearGradient>
<linearGradient id="paint3_linear" x2="1" gradientUnits="userSpaceOnUse" gradientTransform="translate(268.013) scale(268.013 46.0431) rotate(180)">
<stop stop-color="#13F1FC"/>
<stop offset="1" stop-color="#0470DC"/>
</linearGradient>
<linearGradient id="paint4_linear" x2="1" gradientUnits="userSpaceOnUse" gradientTransform="translate(255.423) scale(255.423 46.0431) rotate(180)">
<stop stop-color="#13F1FC"/>
<stop offset="1" stop-color="#0470DC"/>
</linearGradient>
<linearGradient id="paint5_linear" x2="1" gradientUnits="userSpaceOnUse" gradientTransform="translate(6.96486 31.1913) scale(248.982 29.1884)">
<stop stop-color="#13F1FC"/>
<stop offset="1" stop-color="#0470DC"/>
</linearGradient>
<linearGradient id="paint6_linear" x2="1" gradientUnits="userSpaceOnUse" gradientTransform="translate(6.67186 32.9269) scale(238.507 30.8126)">
<stop stop-color="#13F1FC"/>
<stop offset="1" stop-color="#0470DC"/>
</linearGradient>
<linearGradient id="paint7_linear" x2="1" gradientUnits="userSpaceOnUse" gradientTransform="translate(6.89985 35.4446) scale(246.657 33.1686)">
<stop stop-color="#13F1FC"/>
<stop offset="1" stop-color="#0470DC"/>
</linearGradient>
<linearGradient id="paint8_linear" x2="1" gradientUnits="userSpaceOnUse" gradientTransform="translate(6.96486 31.1913) scale(248.982 29.1884)">
<stop stop-color="#13F1FC"/>
<stop offset="1" stop-color="#0470DC"/>
</linearGradient>
<linearGradient id="paint9_linear" x2="1" gradientUnits="userSpaceOnUse" gradientTransform="translate(20.6255) scale(20.6255 30.1964) rotate(90)">
<stop stop-color="#0470DC"/>
<stop offset="1" stop-color="#13F1FC"/>
</linearGradient>
<linearGradient id="paint10_linear" x2="1" gradientUnits="userSpaceOnUse" gradientTransform="translate(20.6255) scale(41.2509 60.3928) rotate(90)">
<stop stop-color="#0470DC"/>
<stop offset="1" stop-color="#13F1FC"/>
</linearGradient>
<linearGradient id="paint11_linear" x2="1" gradientUnits="userSpaceOnUse" gradientTransform="translate(20.6255 30.1964) scale(20.6255 30.1964) rotate(90)">
<stop stop-color="#0470DC"/>
<stop offset="1" stop-color="#13F1FC"/>
</linearGradient>
<linearGradient id="paint12_linear" x2="1" gradientUnits="userSpaceOnUse" gradientTransform="translate(268.013) scale(268.013 46.0431) rotate(180)">
<stop stop-color="#13F1FC"/>
<stop offset="1" stop-color="#0470DC"/>
</linearGradient>
</defs>
</svg>

