<svg width="172" height="176" viewBox="0 0 172 176" fill="none" xmlns="http://www.w3.org/2000/svg">
<path d="M32.7042 65.4658C50.7663 65.4658 65.4084 50.8108 65.4084 32.7329C65.4084 14.655 50.7663 0 32.7042 0C14.6422 0 0 14.655 0 32.7329C0 50.8108 14.6422 65.4658 32.7042 65.4658Z" transform="translate(50.8732 41.0172)" fill="url(#paint0_linear)"/>
<path d="M8.47887 18.0441C8.47887 11.3897 6.68911 5.19318 3.60744 0C3.60744 0 1.87921 2.76398 2.20394 4.5406C2.52842 6.31748 4.43522 6.45312 4.23937 7.75647C4.04352 9.05982 2.63694 7.38348 0.905519 10.8183C-0.825783 14.2534 0.0402229 18.9929 2.52842 19.3476C5.01674 19.7021 8.47887 18.0441 8.47887 18.0441Z" transform="translate(107.803 56.7775)" fill="#3775F4"/>
<path d="M0.814959 0C4.92747 1.11354 8.74187 2.94961 12.1127 5.36269C12.1127 5.36269 8.01576 4.68862 6.46375 6.07283C4.91188 7.45746 2.64852 10.7307 0.814821 6.07283C-1.01861 1.41519 0.814959 0 0.814959 0Z" transform="translate(90.8451 42.2295)" fill="#3775F4"/>
<path d="M0 10.9877C6.00811 4.25227 14.8232 0 24.6483 0C24.6483 0 22.4242 1.32479 26.639 3.57073C30.854 5.81692 28.922 6.85335 28.0439 7.54447C27.166 8.23558 25.643 6.16236 24.6483 4.78037C23.6534 3.39801 19.3811 1.26747 16.1026 2.41954C12.8243 3.57161 10.015 4.4226 10.4829 5.49442C10.9507 6.56599 16.5705 4.49352 18.6779 4.60816C20.7854 4.72305 20.0828 5.98977 18.0929 7.48727C16.1026 8.98478 15.868 10.8275 17.9756 11.9792C20.0828 13.1314 22.658 13.2466 23.2441 12.5556C23.8299 11.8645 22.1904 7.37251 26.1712 9.33033C30.1521 11.2882 33.4305 12.4409 30.1521 15.32C26.8736 18.1988 23.1274 21.425 23.0101 23.2672C22.8928 25.1096 24.1813 26.6081 23.4787 26.7228C22.7762 26.8374 22.1315 25.9743 21.6634 25.3404C21.1956 24.7069 19.0292 24.4768 17.9756 24.8796C16.9218 25.2823 14.9312 26.8374 16.0437 28.3349C17.1564 29.8327 18.6772 29.1407 20.1996 29.8319C21.7218 30.523 23.1413 33.1533 22.8499 33.7478C22.5584 34.3421 21.2608 33.5896 20.1996 31.5597C19.1382 29.5296 17.1474 30.8686 15.7467 30.523C14.3459 30.1776 13.2922 29.9473 11.8871 27.5284C10.4821 25.1098 7.57334 24.4329 6.38473 23.0365C2.97986 19.0367 3.22342 16.0106 2.52103 14.6285C1.81852 13.246 0 10.9877 0 10.9877Z" transform="translate(59.3521 41.0172)" fill="#3775F4"/>
<path d="M4.0568 0.0805508C4.0568 0.0805508 7.57156 0.431965 9.32888 1.95788C11.0862 3.48354 11.3209 4.0706 14.0154 4.65715C16.7098 5.24344 17.8816 6.76859 16.1242 9.7026C14.3668 12.6362 11.2031 17.3303 9.68037 18.7385C8.1578 20.1468 6.28311 21.3202 5.58013 23.667C4.87728 26.0136 4.64253 27.4209 6.16573 28.3604C6.16573 28.3604 5.34615 30.3556 3.47145 27.7739C1.59663 25.1919 3.11984 22.1413 3.47145 20.3811C3.82281 18.621 4.7599 13.341 4.17417 12.0496C3.58883 10.7585 0.893653 9.93683 0.190674 7.23834C-0.512304 4.53971 0.717972 -0.711992 4.0568 0.0805508Z" transform="translate(83.5775 73.7501)" fill="#3775F4"/>
<path d="M0 0C0 8.93317 21.0172 16.1749 46.9432 16.1749C72.8692 16.1749 93.8864 8.93317 93.8864 0" transform="translate(124.082 46.9415) scale(-1 1) rotate(29)" stroke="url(#paint1_linear)" stroke-width="1.2096"/>
<path d="M0 0C0 8.93317 21.0172 16.1749 46.9432 16.1749C72.8692 16.1749 93.8864 8.93317 93.8864 0" transform="translate(66.6102 31.8054) scale(1 -1) rotate(-69)" stroke="url(#paint2_linear)" stroke-width="1.2096"/>
<path d="M0 0C0 8.93317 20.0299 16.1749 44.738 16.1749C69.4461 16.1749 89.476 8.93317 89.476 0" transform="translate(100.649 31.0955) scale(-1 1) rotate(70)" stroke="url(#paint3_linear)" stroke-width="1.2096"/>
<path fill-rule="evenodd" clip-rule="evenodd" d="M0 0C0 3.2184 9.31168 10.1404 13.2799 10.2223L0 0ZM75.8037 10.9575C82.5604 10.9575 93.2045 4.09377 93.2045 0.655311L75.8037 10.9575Z" transform="translate(40.7245 89.1706) scale(1 -1) rotate(28)" stroke="url(#paint4_linear)" stroke-width="1.2096" stroke-dasharray="1.21 1.21 1.21 1.21"/>
<path fill-rule="evenodd" clip-rule="evenodd" d="M0 0C0 3.2184 8.98652 10.1404 12.8161 10.2223L0 0ZM72.4903 11.5672C79.0111 11.5672 89.2834 4.70351 89.2834 1.26505L72.4903 11.5672Z" transform="translate(67.0115 114.426) scale(1 -1) rotate(69)" stroke="url(#paint5_linear)" stroke-width="1.2096" stroke-dasharray="1.21 1.21 1.21 1.21"/>
<path fill-rule="evenodd" clip-rule="evenodd" d="M-0.00611399 8.1333C1.35404 11.0502 12.424 13.5258 15.9294 11.9816L-0.00611399 8.1333ZM75.5413 10.3022C82.062 10.3022 92.3344 3.43847 92.3344 9.89122e-06L75.5413 10.3022Z" transform="translate(120.047 103.232) scale(-1 1) rotate(-32)" stroke="url(#paint6_linear)" stroke-width="1.2096" stroke-dasharray="1.21 1.21 1.21 1.21"/>
<path fill-rule="evenodd" clip-rule="evenodd" d="M0 0C0 3.2184 9.31168 10.1404 13.2799 10.2223L0 0ZM75.8037 10.9575C82.5604 10.9575 93.2044 4.09377 93.2044 0.655308L75.8037 10.9575Z" transform="translate(96.9551 119.729) scale(-1 1) rotate(-70)" stroke="url(#paint7_linear)" stroke-width="1.2096" stroke-dasharray="1.21 1.21 1.21 1.21"/>
<g filter="url(#filter0_d)">
<path fill-rule="evenodd" clip-rule="evenodd" d="M30.4766 14.7546C47.3083 14.7546 60.9532 11.4517 60.9532 7.3773C60.9532 3.30293 47.3083 0 30.4766 0C13.6448 0 0 3.30293 0 7.3773C0 11.4517 13.6448 14.7546 30.4766 14.7546Z" transform="translate(54.2974 122.955)" fill="black" fill-opacity="0.01"/>
</g>
<path opacity="0.517267" fill-rule="evenodd" clip-rule="evenodd" d="M0 0L14.4504 7.55482V21.216L0 13.0236V0Z" transform="translate(157.465 72.8498)" fill="url(#paint8_linear)"/>
<path opacity="0.517267" fill-rule="evenodd" clip-rule="evenodd" d="M0 0L14.4504 7.55482V21.216L0 13.0236V0Z" transform="translate(48.4507 0.110007)" fill="url(#paint9_linear)"/>
<path opacity="0.517267" fill-rule="evenodd" clip-rule="evenodd" d="M0 0L14.4504 7.55482V21.216L0 13.0236V0Z" transform="translate(0 97.0964)" fill="url(#paint10_linear)"/>
<path d="M0 0C0 8.93317 21.0172 16.1749 46.9432 16.1749C72.8692 16.1749 93.8864 8.93317 93.8864 0" transform="translate(42.7714 52.3545) scale(1 -1) rotate(-37)" stroke="url(#paint11_linear)" stroke-width="1.2096"/>
<path fill-rule="evenodd" clip-rule="evenodd" d="M0 4.97411L1.78634 0.440271L2.27656 0V6.24521L0 4.97411Z" transform="translate(162.308 78.7113) rotate(2)" fill="#294151"/>
<path fill-rule="evenodd" clip-rule="evenodd" d="M2.74145 4.9758L2.29128 5.43083L0.456817 6.24689L0 0.454907L0.456817 0L2.74145 4.9758Z" transform="translate(164.266 78.7779) rotate(2)" fill="#294151"/>
<path fill-rule="evenodd" clip-rule="evenodd" d="M0.463055 0L2.73962 1.20906V3.15326L2.274 3.5992L0 0.451483L0.463055 0Z" transform="translate(161.665 83.848) rotate(2)" fill="#294151"/>
<path fill-rule="evenodd" clip-rule="evenodd" d="M2.75316 0L0.46853 3.15326L0 3.59884L0.0271154 1.63839L0.32312 1.25672L2.75316 0Z" transform="translate(164.074 83.9321) rotate(2)" fill="#294151"/>
<path fill-rule="evenodd" clip-rule="evenodd" d="M0 4.91755L2.26372 0V6.1742L0 4.91755Z" transform="translate(161.812 79.2109) rotate(2)" fill="#497391"/>
<path fill-rule="evenodd" clip-rule="evenodd" d="M2.27174 4.91922L0 6.17587V0L2.27174 4.91922Z" transform="translate(164.213 79.293) rotate(2)" fill="#497391"/>
<path fill-rule="evenodd" clip-rule="evenodd" d="M0 0L2.26372 1.19531V3.11741L0 0Z" transform="translate(161.634 84.3052) rotate(2)" fill="#497391"/>
<path fill-rule="evenodd" clip-rule="evenodd" d="M2.27174 0L0 3.11741V1.19531L2.27174 0Z" transform="translate(164.035 84.389) rotate(2)" fill="#497391"/>
<path fill-rule="evenodd" clip-rule="evenodd" d="M0 4.97411L1.78634 0.440271L2.27656 0V6.24521L0 4.97411Z" transform="translate(53.0249 5.99213) rotate(2)" fill="#294151"/>
<path fill-rule="evenodd" clip-rule="evenodd" d="M2.74145 4.9758L2.29128 5.43083L0.456817 6.24689L0 0.454907L0.456817 0L2.74145 4.9758Z" transform="translate(54.9826 6.0588) rotate(2)" fill="#294151"/>
<path fill-rule="evenodd" clip-rule="evenodd" d="M0.463055 0L2.73962 1.20906V3.15326L2.274 3.5992L0 0.451483L0.463055 0Z" transform="translate(52.3822 11.1289) rotate(2)" fill="#294151"/>
<path fill-rule="evenodd" clip-rule="evenodd" d="M2.75316 0L0.46853 3.15326L0 3.59884L0.0271154 1.63839L0.32312 1.25672L2.75316 0Z" transform="translate(54.7909 11.213) rotate(2)" fill="#294151"/>
<path fill-rule="evenodd" clip-rule="evenodd" d="M0 4.91755L2.26372 0V6.1742L0 4.91755Z" transform="translate(52.5293 6.49173) rotate(2)" fill="#497391"/>
<path fill-rule="evenodd" clip-rule="evenodd" d="M2.27174 4.91922L0 6.17587V0L2.27174 4.91922Z" transform="translate(54.9299 6.57389) rotate(2)" fill="#497391"/>
<path fill-rule="evenodd" clip-rule="evenodd" d="M0 0L2.26372 1.19531V3.11741L0 0Z" transform="translate(52.3514 11.5861) rotate(2)" fill="#497391"/>
<path fill-rule="evenodd" clip-rule="evenodd" d="M2.27174 0L0 3.11741V1.19531L2.27174 0Z" transform="translate(54.752 11.6699) rotate(2)" fill="#497391"/>
<path fill-rule="evenodd" clip-rule="evenodd" d="M0 4.97411L1.78634 0.440271L2.27656 0V6.24521L0 4.97411Z" transform="translate(5.38336 103.302) rotate(2)" fill="#294151"/>
<path fill-rule="evenodd" clip-rule="evenodd" d="M2.74145 4.9758L2.29128 5.43083L0.456817 6.24689L0 0.454907L0.456817 0L2.74145 4.9758Z" transform="translate(7.34106 103.369) rotate(2)" fill="#294151"/>
<path fill-rule="evenodd" clip-rule="evenodd" d="M0.463055 0L2.73962 1.20906V3.15326L2.274 3.5992L0 0.451483L0.463055 0Z" transform="translate(4.74066 108.439) rotate(2)" fill="#294151"/>
<path fill-rule="evenodd" clip-rule="evenodd" d="M2.75316 0L0.46853 3.15326L0 3.59884L0.0271154 1.63839L0.32312 1.25672L2.75316 0Z" transform="translate(7.14935 108.523) rotate(2)" fill="#294151"/>
<path fill-rule="evenodd" clip-rule="evenodd" d="M0 4.91755L2.26372 0V6.1742L0 4.91755Z" transform="translate(4.88776 103.802) rotate(2)" fill="#497391"/>
<path fill-rule="evenodd" clip-rule="evenodd" d="M2.27174 4.91922L0 6.17587V0L2.27174 4.91922Z" transform="translate(7.28833 103.884) rotate(2)" fill="#497391"/>
<path fill-rule="evenodd" clip-rule="evenodd" d="M0 0L2.26372 1.19531V3.11741L0 0Z" transform="translate(4.70984 108.896) rotate(2)" fill="#497391"/>
<path fill-rule="evenodd" clip-rule="evenodd" d="M2.27174 0L0 3.11741V1.19531L2.27174 0Z" transform="translate(7.11041 108.98) rotate(2)" fill="#497391"/>
<defs>
<filter id="filter0_d" x="42.2974" y="110.955" width="84.9532" height="38.7546" filterUnits="userSpaceOnUse" color-interpolation-filters="sRGB">
<feFlood flood-opacity="0" result="BackgroundImageFix"/>
<feColorMatrix in="SourceAlpha" type="matrix" values="0 0 0 0 0 0 0 0 0 0 0 0 0 0 0 0 0 0 255 0"/>
<feOffset/>
<feGaussianBlur stdDeviation="6"/>
<feColorMatrix type="matrix" values="0 0 0 0 0.2 0 0 0 0 0.278431 0 0 0 0 0.466667 0 0 0 0.5 0"/>
<feBlend mode="normal" in2="BackgroundImageFix" result="effect1_dropShadow"/>
<feBlend mode="normal" in="SourceGraphic" in2="effect1_dropShadow" result="shape"/>
</filter>
<linearGradient id="paint0_linear" x2="1" gradientUnits="userSpaceOnUse" gradientTransform="translate(32.7042) scale(65.4084 65.4658) rotate(90)">
<stop stop-color="#334777"/>
<stop offset="1" stop-color="#172242"/>
</linearGradient>
<linearGradient id="paint1_linear" x2="1" gradientUnits="userSpaceOnUse" gradientTransform="translate(93.8864) scale(93.8864 16.1749) rotate(180)">
<stop stop-color="#13F1FC"/>
<stop offset="1" stop-color="#0470DC"/>
</linearGradient>
<linearGradient id="paint2_linear" x2="1" gradientUnits="userSpaceOnUse" gradientTransform="translate(93.8864) scale(93.8864 16.1749) rotate(180)">
<stop stop-color="#13F1FC"/>
<stop offset="1" stop-color="#0470DC"/>
</linearGradient>
<linearGradient id="paint3_linear" x2="1" gradientUnits="userSpaceOnUse" gradientTransform="translate(89.476) scale(89.476 16.1749) rotate(180)">
<stop stop-color="#13F1FC"/>
<stop offset="1" stop-color="#0470DC"/>
</linearGradient>
<linearGradient id="paint4_linear" x2="1" gradientUnits="userSpaceOnUse" gradientTransform="translate(2.43983 10.9575) scale(87.2196 10.2539)">
<stop stop-color="#13F1FC"/>
<stop offset="1" stop-color="#0470DC"/>
</linearGradient>
<linearGradient id="paint5_linear" x2="1" gradientUnits="userSpaceOnUse" gradientTransform="translate(2.33719 11.5672) scale(83.5504 10.8245)">
<stop stop-color="#13F1FC"/>
<stop offset="1" stop-color="#0470DC"/>
</linearGradient>
<linearGradient id="paint6_linear" x2="1" gradientUnits="userSpaceOnUse" gradientTransform="translate(2.41705 12.4517) scale(86.4054 11.6522)">
<stop stop-color="#13F1FC"/>
<stop offset="1" stop-color="#0470DC"/>
</linearGradient>
<linearGradient id="paint7_linear" x2="1" gradientUnits="userSpaceOnUse" gradientTransform="translate(2.43983 10.9575) scale(87.2196 10.2539)">
<stop stop-color="#13F1FC"/>
<stop offset="1" stop-color="#0470DC"/>
</linearGradient>
<linearGradient id="paint8_linear" x2="1" gradientUnits="userSpaceOnUse" gradientTransform="translate(7.22521) scale(7.22521 10.608) rotate(90)">
<stop stop-color="#0470DC"/>
<stop offset="1" stop-color="#13F1FC"/>
</linearGradient>
<linearGradient id="paint9_linear" x2="1" gradientUnits="userSpaceOnUse" gradientTransform="translate(7.22521) scale(14.4504 21.216) rotate(90)">
<stop stop-color="#0470DC"/>
<stop offset="1" stop-color="#13F1FC"/>
</linearGradient>
<linearGradient id="paint10_linear" x2="1" gradientUnits="userSpaceOnUse" gradientTransform="translate(7.22521 10.608) scale(7.22521 10.608) rotate(90)">
<stop stop-color="#0470DC"/>
<stop offset="1" stop-color="#13F1FC"/>
</linearGradient>
<linearGradient id="paint11_linear" x2="1" gradientUnits="userSpaceOnUse" gradientTransform="translate(93.8864) scale(93.8864 16.1749) rotate(180)">
<stop stop-color="#13F1FC"/>
<stop offset="1" stop-color="#0470DC"/>
</linearGradient>
</defs>
</svg>

